<?xml version="1.0" encoding="UTF-8"?>
<svg width="142.84" height="243.57" viewBox="0 0 142.835 243.571" xmlns="http://www.w3.org/2000/svg">
 <path d="m25.974,68.94c-.904-.15-1.909-1.005-2.612-2.16-.904-1.457-2.009-3.516-2.16-5.375-.302-1.858.1-3.768 1.206-5.525 1.155-2.009 3.616-4.169 5.827-5.325 2.059-1.205 4.772-1.055 6.781-1.105 1.808-.05 3.466.251 4.42.905 .804.602.402,1.256.955,2.16 .452.653 1.355,1.256 2.109,2.009 .654.653 1.105,1.607 1.558,2.461 .251.653-.05,1.607.452,2.109 .302.352 1.256.251 1.708.653 .351.301.15,1.406.753,1.959 .402.553 1.255.904 2.16,1.256 1.558-.955 3.114-2.562 4.27-4.622 .955-2.26 1.859-4.47 2.913-7.986 1.257-3.567 2.563-7.887 4.32-13.161-.552-1.356-.703-2.461-.652-3.516-.101-1.055-.051-1.507.954-2.914 1.005-1.708 2.662-3.717 5.175-6.581 .1-2.763.451-4.671 1.255-5.927 .653-1.356 2.361-.954 3.215-1.708 .653-.904.653-2.21 1.356-3.517 .704-1.457 1.508-3.617 2.613-4.722 .903-1.155 2.311-2.36 3.265-2.461 .904-.302 1.607-.05 2.109.753 .401-1.305 1.558-2.361 2.913-3.365 1.407-1.156 4.068-2.261 5.677-2.763 1.457-.553 2.512-.603 3.365-.151 .754.402 1.356,1.155 1.406,2.461-.101,1.206-1.205,3.114-1.406,4.571-.25,1.256 1.105,2.512 0,3.365-1.355.754-5.174.251-7.184,1.407-2.059,1.155-2.612,1.908-4.771,5.375-2.36,3.265-6.229,10.85-8.288,14.416-2.011,3.516-3.115,3.617-3.517,6.279-.553,2.512.401,5.827.904,8.59 .502,2.562 1.104,5.626 2.009,7.033 .804,1.256 1.658,1.507 2.764.753 .151-2.411.051-4.069-.301-5.174-.503-1.155-2.061-.452-2.161-1.407-.251-1.206.854-3.667 1.407-4.872 .452-1.256 1.206-1.708 1.507-2.311 .1-.803-.452-1.105-.301-1.708 .251-.703 1.055-.854 1.255-1.808-.051-1.105-2.009-3.013-1.255-4.169 .703-1.155 2.21-1.909 5.073-2.461-.854-2.863-.905-4.521-.151-5.525s2.612-.352 4.42-.151c1.608,0 4.471-.251 5.073.804 .402,1.105-.301,2.913-2.31,5.625 2.662-.201 4.722.101 6.78,1.105 1.858.904 3.567,3.014 4.723,4.571 1.005,1.356.954,3.115 2.009,4.119 1.055.955 3.166,1.959 4.421,1.858 1.155-.201 1.908-1.055 2.462-2.763 .049,2.562-.252,4.42-.905,5.978-.753,1.457-1.707,2.361-3.064,2.913 1.558,1.206 2.964,2.361 3.818,3.667 .703,1.205 1.155,2.261 1.558,3.968 .301,1.658.451,3.768 1.055,6.128 .703,2.311 1.507,4.722 2.612,7.233 .954,2.411 2.712,4.772 2.762,6.882-.251,1.909-1.858,2.964-3.667,4.922-1.808,2.009-4.119,4.069-6.932,6.731-.452,1.406-.854,3.416-1.206,5.827-.652,2.411-1.958,5.576-1.406,8.741 .453,2.913 1.758,4.471 5.073,9.544 3.416,5.023 9.796,12.81 14.869,21.048 4.772,8.338 10.196,18.887 13.965,27.777 3.717,8.641 6.078,16.427 7.836,23.76-3.315,2.714-6.43,4.421-9.344,5.525-3.063,1.005-5.927,1.206-8.589.603-1.104,3.216-2.361,5.275-4.169,6.731-1.859,1.206-4.521,1.357-6.431,1.406-1.909,0-3.616-.301-4.922-1.104-3.416.201-5.927.201-7.938,0-2.059-.251-3.214-.703-3.867-1.356-2.06,0-3.567-.05-4.723-.149-1.255-.151-1.958-.354-2.31-.604-.553,6.832-1.006,12.307-1.558,17.18-.652,4.671-1.456,7.232-1.658,11.15-.251,3.818-.251,8.238 0,11.354 0,2.863 1.206,4.722.303,5.978-1.307,1.306-5.174,1.657-6.582,1.255-1.305-.652-1.155-3.214-1.104-4.771-.15-1.608.753-2.612.753-4.772-.05-2.461-.552-5.224-.903-9.042-.553-3.918-1.858-7.886-1.808-13.462-.102-5.676.451-12.307 1.656-20.093-4.369,0-7.986-.552-11.051-1.255-3.165-.754-5.425-2.061-7.334-3.518l-5.375.151c0,3.215-.252,5.827-.754,8.439-.652,2.41-2.863,2.159-2.763,6.43-.15,4.27.904,10.548 2.612,19.037 1.355,1.156 2.512,2.261 3.667,3.518 1.105,1.255 3.365,2.661 2.913,3.816-.753,1.004-3.867,2.21-6.43,2.462-2.712-.05-7.032-.653-8.891-1.81-1.959-1.405-2.512-4.218-2.612-5.525-.201-1.305.402-1.907 1.809-2.008-1.708-6.731-3.215-13.162-4.119-19.49-.955-6.38-1.708-12.558-1.858-18.536-4.772,4.27-9.092,8.037-13.161,11.504-4.169,3.214-8.238,6.178-11.051,8.891-2.914,2.662-4.521,5.124-5.978,7.385-1.506,2.109-1.506,5.174-2.914,5.323-1.607-.05-4.973-3.214-5.826-5.022-.955-1.909-.352-4.32.452-5.677 .703-1.256 1.909-.804 3.818-2.159 1.859-1.508 4.47-3.617 7.233-6.731 2.461-3.266 4.923-8.188 8.138-12.458 3.064-4.369 6.63-8.79 10.699-13.463-.2-.501-.753-1.355-1.658-2.359-.904-1.055-2.31-2.463-4.018-4.019-3.817-.151-6.43-.804-8.439-1.96s-3.014-2.862-3.215-4.923c-3.717-1.808-6.078-3.667-7.484-5.374-1.507-1.758-1.507-3.818-.753-5.225 .703-1.557 2.813-2.863 5.174-4.119 2.31-1.507 4.772-2.863 8.138-4.471v-.754c-3.567-2.913-5.476-5.876-6.128-8.891-.653-2.964 1.457-5.576 2.461-9.192 .854-3.968 2.009-10.197 2.913-13.814 .703-3.767.854-5.274 2.009-7.987 1.004-2.813 2.16-5.124 4.42-8.288 2.16-3.315 5.124-7.033 8.891-11.151l-.301-3.516c-2.161-.352-3.567-.904-4.773-1.658-1.155-.854-1.808-1.759-1.958-2.914l-.15-1.001zm37.876.05c-.352,1.206-.604,2.06-.955,2.763-.502.552-.904.452-1.206,1.255-.352.703-.502,2.009-.451,3.517 1.758,2.511 3.165,5.073 4.42,7.685 1.205,2.663 2.06,5.074 2.763,7.786l.151-5.827c-.553-1.959-1.005-3.768-1.357-5.978-.4-2.26-.502-5.073-.903-6.882-.604-1.858-1.358-3.364-2.462-4.319zm-32.852,42.798c.251,4.722-.05,8.188-.905,10.599-.954,2.411-2.361,3.566-4.42,3.667l2.914,6.127c2.109-1.606 4.119-3.063 6.43-4.771 2.26-1.758 4.42-3.417 6.882-5.174-1.758-3.315-3.617-5.575-5.375-7.384-1.809-1.808-3.718-2.763-5.526-3.064z" fill-rule="evenodd" stroke="#000" stroke-miterlimit="10" stroke-width=".036"/>
</svg>
